<svg fill="none" height="24" viewBox="0 0 24 24" width="24" xmlns="http://www.w3.org/2000/svg" xmlns:xlink="http://www.w3.org/1999/xlink"><linearGradient id="a"><stop offset="0" stop-color="#00b0bb"/><stop offset="1" stop-color="#00db65"/></linearGradient><radialGradient id="b" cx="0" cy="0" gradientTransform="matrix(17.68280924 -3.12718553 3.09702334 17.51225578 -3.00503 15.023)" gradientUnits="userSpaceOnUse" r="1" xlink:href="#a"/><linearGradient id="c" gradientUnits="userSpaceOnUse" x1="7.39036" x2="1.62975" y1="4.81308" y2="18.6894"><stop offset="0" stop-color="#18e299"/><stop offset="1"/></linearGradient><linearGradient id="d"><stop offset="0"/><stop offset="1" stop-opacity="0"/></linearGradient><linearGradient id="e" gradientUnits="userSpaceOnUse" x1="7.94816" x2="1.7612" xlink:href="#d" y1="8.01563" y2="18.746"/><radialGradient id="f" cx="0" cy="0" gradientTransform="matrix(5.32143009 -20.95962087 23.04602616 5.85114673 8.11404 20.8822)" gradientUnits="userSpaceOnUse" r="1"><stop offset="0" stop-color="#0bb"/><stop offset=".712616" stop-color="#00db65"/></radialGradient><linearGradient id="g" gradientUnits="userSpaceOnUse" x1="7.60205" x2="15.5561" xlink:href="#d" y1="5.8709" y2="16.3719"/><radialGradient id="h" cx="0" cy="0" gradientTransform="matrix(17.40159243 -6.45517752 6.02380752 16.23872356 7.84537 21.5181)" gradientUnits="userSpaceOnUse" r="1" xlink:href="#a"/><linearGradient id="i" gradientUnits="userSpaceOnUse" x1="16.8078" x2="10.0409" y1="13.0071" y2="22.9937"><stop offset="0" stop-color="#00b1bc"/><stop offset="1"/></linearGradient><linearGradient id="j" gradientUnits="userSpaceOnUse" x1="16.8078" x2="14.1687" xlink:href="#d" y1="13.0071" y2="23.841"/><path d="m7.95343 21.1394c-3.05757-.009-5.69872-1.6814-6.966134-4.8499-1.267414-3.1685-.878372-7.12636.756334-10.67445 3.05757.00904 5.69872 1.68143 6.96613 4.84995 1.26742 3.1685.87838 7.1264-.75633 10.6744z" fill="#fff"/><path d="m7.95343 21.1394c-3.05757-.009-5.69872-1.6814-6.966134-4.8499-1.267414-3.1685-.878372-7.12636.756334-10.67445 3.05757.00904 5.69872 1.68143 6.96613 4.84995 1.26742 3.1685.87838 7.1264-.75633 10.6744z" fill="url(#b)"/><path d="m7.95343 21.1394c-3.05757-.009-5.69872-1.6814-6.966134-4.8499-1.267414-3.1685-.878372-7.12636.756334-10.67445 3.05757.00904 5.69872 1.68143 6.96613 4.84995 1.26742 3.1685.87838 7.1264-.75633 10.6744z" fill="#000" fill-opacity=".5"/><path d="m7.95343 21.1394c-3.05757-.009-5.69872-1.6814-6.966134-4.8499-1.267414-3.1685-.878372-7.12636.756334-10.67445 3.05757.00904 5.69872 1.68143 6.96613 4.84995 1.26742 3.1685.87838 7.1264-.75633 10.6744z" fill="url(#c)" fill-opacity=".5"/><path d="m8.68359 10.4755c1.26184 3.1545.87786 7.0968-.74819 10.6357-3.03838-.0155-5.66129-1.6806-6.92193-4.8322-1.261845-3.1545-.877858-7.09682.74818-10.63572 3.03839.01555 5.6613 1.68058 6.92194 4.83222z" stroke="url(#e)" stroke-opacity=".05" stroke-width=".056338"/><path d="m7.31038 21.2574c4.04392-1.0359 7.57322-3.882 9.31812-8.0213 1.745-4.13939 1.3163-8.64861-.7687-12.259809-4.0439 1.035849-7.5732 3.881969-9.31813 8.021329-1.74493 4.13938-1.31627 8.64858.76871 12.25978z" fill="#fff"/><path d="m7.31038 21.2574c4.04392-1.0359 7.57322-3.882 9.31812-8.0213 1.745-4.13939 1.3163-8.64861-.7687-12.259809-4.0439 1.035849-7.5732 3.881969-9.31813 8.021329-1.74493 4.13938-1.31627 8.64858.76871 12.25978z" fill="url(#f)"/><path d="m16.6026 13.2251c-1.7384 4.1239-5.2514 6.9615-9.27849 7.9997-2.07154-3.6008-2.49485-8.0924-.75647-12.21625 1.73839-4.12383 5.25136-6.96149 9.27846-7.99966 2.0715 3.60078 2.4948 8.09242.7565 12.21621z" stroke="url(#g)" stroke-opacity=".05" stroke-width=".056338"/><path d="m7.23368 21.2069c2.55538 2.0304 5.97652 2.7437 9.34352 1.6072 3.3669-1.1366 5.9286-3.8696 7.1532-7.1759-2.5554-2.0304-5.9766-2.7438-9.3435-1.6072-3.367 1.1366-5.92868 3.8696-7.15322 7.1759z" fill="#fff"/><path d="m7.23368 21.2069c2.55538 2.0304 5.97652 2.7437 9.34352 1.6072 3.3669-1.1366 5.9286-3.8696 7.1532-7.1759-2.5554-2.0304-5.9766-2.7438-9.3435-1.6072-3.367 1.1366-5.92868 3.8696-7.15322 7.1759z" fill="url(#h)"/><path d="m7.23368 21.2069c2.55538 2.0304 5.97652 2.7437 9.34352 1.6072 3.3669-1.1366 5.9286-3.8696 7.1532-7.1759-2.5554-2.0304-5.9766-2.7438-9.3435-1.6072-3.367 1.1366-5.92868 3.8696-7.15322 7.1759z" fill="#000" fill-opacity=".2"/><path d="m7.23368 21.2069c2.55538 2.0304 5.97652 2.7437 9.34352 1.6072 3.3669-1.1366 5.9286-3.8696 7.1532-7.1759-2.5554-2.0304-5.9766-2.7438-9.3435-1.6072-3.367 1.1366-5.92868 3.8696-7.15322 7.1759z" fill="url(#i)" fill-opacity=".5"/><path d="m16.5682 22.7874c-3.3506 1.131-6.75459.425-9.301-1.5899 1.22474-3.2907 3.7772-6.0085 7.1287-7.1398 3.3506-1.1311 6.7545-.4251 9.3009 1.5899-1.2247 3.2907-3.7772 6.0084-7.1286 7.1398z" stroke="url(#j)" stroke-opacity=".05" stroke-width=".056338"/></svg>