<svg fill="none" height="24" viewBox="0 0 160 24" width="160" xmlns="http://www.w3.org/2000/svg" xmlns:xlink="http://www.w3.org/1999/xlink"><linearGradient id="a"><stop offset="0" stop-color="#00b0bb"/><stop offset="1" stop-color="#00db65"/></linearGradient><radialGradient id="b" cx="0" cy="0" gradientTransform="matrix(17.68280924 -3.12718553 3.09702334 17.51225578 -3.00503 15.023)" gradientUnits="userSpaceOnUse" r="1" xlink:href="#a"/><linearGradient id="c" gradientUnits="userSpaceOnUse" x1="7.39036" x2="1.62975" y1="4.81308" y2="18.6894"><stop offset="0" stop-color="#18e299"/><stop offset="1"/></linearGradient><linearGradient id="d"><stop offset="0"/><stop offset="1" stop-opacity="0"/></linearGradient><linearGradient id="e" gradientUnits="userSpaceOnUse" x1="7.94816" x2="1.7612" xlink:href="#d" y1="8.01562" y2="18.746"/><radialGradient id="f" cx="0" cy="0" gradientTransform="matrix(5.32143009 -20.95962087 23.04602616 5.85114673 8.11404 20.8822)" gradientUnits="userSpaceOnUse" r="1"><stop offset="0" stop-color="#0bb"/><stop offset=".712616" stop-color="#00db65"/></radialGradient><linearGradient id="g" gradientUnits="userSpaceOnUse" x1="7.60205" x2="15.5561" xlink:href="#d" y1="5.8709" y2="16.3719"/><radialGradient id="h" cx="0" cy="0" gradientTransform="matrix(17.40159243 -6.45517752 6.02380752 16.23872356 7.84537 21.5181)" gradientUnits="userSpaceOnUse" r="1" xlink:href="#a"/><linearGradient id="i" gradientUnits="userSpaceOnUse" x1="16.8078" x2="10.0409" y1="13.0071" y2="22.9937"><stop offset="0" stop-color="#00b1bc"/><stop offset="1"/></linearGradient><linearGradient id="j" gradientUnits="userSpaceOnUse" x1="16.8078" x2="14.1687" xlink:href="#d" y1="13.0071" y2="23.841"/><radialGradient id="k" cx="0" cy="0" gradientTransform="matrix(63.87572858 22.00003832 -27.92431542 81.0764948 47.2781 7)" gradientUnits="userSpaceOnUse" r="1"><stop offset="0" stop-color="#fff"/><stop offset="1" stop-color="#fff" stop-opacity=".5"/></radialGradient><path d="m7.95343 21.1394c-3.05757-.009-5.69872-1.6814-6.966134-4.8499-1.267414-3.1685-.878372-7.12636.756334-10.67446 3.05757.00905 5.69872 1.68144 6.96613 4.84996 1.26742 3.1685.87838 7.1263-.75633 10.6744z" fill="#fff"/><path d="m7.95343 21.1394c-3.05757-.009-5.69872-1.6814-6.966134-4.8499-1.267414-3.1685-.878372-7.12636.756334-10.67446 3.05757.00905 5.69872 1.68144 6.96613 4.84996 1.26742 3.1685.87838 7.1263-.75633 10.6744z" fill="url(#b)"/><path d="m7.95343 21.1394c-3.05757-.009-5.69872-1.6814-6.966134-4.8499-1.267414-3.1685-.878372-7.12636.756334-10.67446 3.05757.00905 5.69872 1.68144 6.96613 4.84996 1.26742 3.1685.87838 7.1263-.75633 10.6744z" fill="#000" fill-opacity=".5"/><path d="m7.95343 21.1394c-3.05757-.009-5.69872-1.6814-6.966134-4.8499-1.267414-3.1685-.878372-7.12636.756334-10.67446 3.05757.00905 5.69872 1.68144 6.96613 4.84996 1.26742 3.1685.87838 7.1263-.75633 10.6744z" fill="url(#c)" fill-opacity=".5"/><path d="m7.9354 21.1112c-3.03838-.0155-5.66129-1.6806-6.92193-4.8322-1.261845-3.1546-.877858-7.09682.74818-10.63573 3.03839.01555 5.6613 1.68058 6.92194 4.83223 1.26184 3.1545.87785 7.0968-.74819 10.6357z" stroke="url(#e)" stroke-opacity=".05" stroke-width=".056338"/><path d="m7.31038 21.2574c4.04392-1.0359 7.57322-3.882 9.31812-8.0213 1.745-4.13939 1.3163-8.64861-.7687-12.259809-4.0439 1.035849-7.5732 3.881969-9.31813 8.021329-1.74493 4.13938-1.31627 8.64858.76871 12.25978z" fill="#fff"/><path d="m7.31038 21.2574c4.04392-1.0359 7.57322-3.882 9.31812-8.0213 1.745-4.13939 1.3163-8.64861-.7687-12.259809-4.0439 1.035849-7.5732 3.881969-9.31813 8.021329-1.74493 4.13938-1.31627 8.64858.76871 12.25978z" fill="url(#f)"/><path d="m16.6025 13.2251c-1.7383 4.1239-5.2513 6.9615-9.27839 7.9997-2.07154-3.6008-2.49485-8.0924-.75647-12.21625 1.73839-4.12383 5.25136-6.96149 9.27846-7.99966 2.0715 3.60078 2.4948 8.09242.7564 12.21621z" stroke="url(#g)" stroke-opacity=".05" stroke-width=".056338"/><path d="m7.23368 21.2069c2.55538 2.0304 5.97652 2.7437 9.34352 1.6072 3.3669-1.1366 5.9286-3.8696 7.1532-7.1759-2.5554-2.0304-5.9766-2.7438-9.3435-1.6072-3.367 1.1366-5.92868 3.8696-7.15322 7.1759z" fill="#fff"/><path d="m7.23368 21.2069c2.55538 2.0304 5.97652 2.7437 9.34352 1.6072 3.3669-1.1366 5.9286-3.8696 7.1532-7.1759-2.5554-2.0304-5.9766-2.7438-9.3435-1.6072-3.367 1.1366-5.92868 3.8696-7.15322 7.1759z" fill="url(#h)"/><path d="m7.23368 21.2069c2.55538 2.0304 5.97652 2.7437 9.34352 1.6072 3.3669-1.1366 5.9286-3.8696 7.1532-7.1759-2.5554-2.0304-5.9766-2.7438-9.3435-1.6072-3.367 1.1366-5.92868 3.8696-7.15322 7.1759z" fill="#000" fill-opacity=".2"/><path d="m7.23368 21.2069c2.55538 2.0304 5.97652 2.7437 9.34352 1.6072 3.3669-1.1366 5.9286-3.8696 7.1532-7.1759-2.5554-2.0304-5.9766-2.7438-9.3435-1.6072-3.367 1.1366-5.92868 3.8696-7.15322 7.1759z" fill="url(#i)" fill-opacity=".5"/><path d="m16.5682 22.7874c-3.3506 1.131-6.75459.425-9.301-1.5899 1.22474-3.2907 3.7772-6.0085 7.1287-7.1398 3.3506-1.1311 6.7545-.4251 9.3009 1.5899-1.2247 3.2907-3.7772 6.0084-7.1286 7.1398z" stroke="url(#j)" stroke-opacity=".05" stroke-width=".056338"/><path d="m34.2124 19v-13.6h5.28l2.2 6.8.68 2.54.68-2.54 2.2-6.8h5.16v13.6h-4.08l.26-9.02-1.06 3.7-1.74 5.32h-2.96l-1.78-5.4-1.02-3.58.26 8.98zm18.2031-11.7v-2.7h3.88v2.7zm0 11.7v-10.86h3.88v10.86zm5.6883 0v-10.86h3.88v1.44c.68-1.24 1.76-1.82 3.02-1.82 1.96 0 3.62 1.22 3.62 4.02v7.22h-3.88v-6.44c0-1.22-.44-1.7-1.26-1.7-.88 0-1.5.72-1.5 2.02v6.12zm12.8289-3.78v-4.16h-1.2v-2.92h1.2v-2.52h3.88v2.52h2.12v2.92h-2.12v3.54c0 .9.22 1.46 1.4 1.46h.72v2.94c-.44.2-1.26.38-2.28.38-2.5 0-3.72-1.5-3.72-4.16z" fill="url(#k)"/><path d="m87.232 10.519c0 3.168 6.8805.7095 6.8805 5.313 0 2.1615-1.749 3.366-4.1415 3.366-2.409 0-4.059-1.1055-4.554-3.366h1.584c.363 1.3365 1.3695 2.0625 2.9865 2.0625 1.683 0 2.574-.7425 2.574-1.8645 0-3.432-6.8805-.8745-6.8805-5.412 0-1.617 1.353-3.036 3.828-3.036 2.1615 0 3.894 1.0395 4.3065 3.432h-1.6005c-.3465-1.485-1.3035-2.1285-2.739-2.1285-1.419 0-2.244.6435-2.244 1.6335zm9.0179 5.9565v-5.082h-1.221v-1.155h1.221v-2.013h1.452v2.013h1.9305v1.155h-1.9305v5.082c0 1.056.3135 1.551 1.6005 1.551h.297v1.0395c-.165.0825-.528.132-.9405.132-1.6335 0-2.409-.8745-2.409-2.7225zm6.2661-3.3825h-1.452c.281-1.9305 1.551-3.069 3.696-3.069 2.343 0 3.482 1.3695 3.482 3.4155v3.4485c0 1.0065.082 1.6335.313 2.112h-1.534c-.165-.3465-.215-.858-.231-1.386-.743 1.1055-1.931 1.584-2.987 1.584-1.815 0-3.036-.8415-3.036-2.508 0-1.2045.66-2.079 1.947-2.508 1.188-.396 2.393-.495 4.076-.5115v-.198c0-1.419-.66-2.1945-2.162-2.1945-1.254 0-1.93.693-2.112 1.815zm-.264 3.564c0 .8085.677 1.287 1.7 1.287 1.617 0 2.838-1.2705 2.838-2.772v-.4125c-3.729.033-4.538.825-4.538 1.8975zm8.535 2.343v-8.7615h1.452v1.353c.594-1.0725 1.535-1.5675 2.591-1.5675.346 0 .66.0825.825.2145v1.3035c-.248-.0825-.561-.1155-.908-.1155-1.749 0-2.508 1.089-2.508 2.673v4.9005zm6.518-2.5245v-5.082h-1.221v-1.155h1.221v-2.013h1.452v2.013h1.931v1.155h-1.931v5.082c0 1.056.314 1.551 1.601 1.551h.297v1.0395c-.165.0825-.528.132-.941.132-1.633 0-2.409-.8745-2.409-2.7225zm12.504-.33c-.479 2.046-1.947 3.0525-3.944 3.0525-2.541 0-4.075-1.716-4.075-4.5705 0-2.97 1.534-4.6035 3.993-4.6035 2.475 0 3.96 1.6995 3.96 4.488v.363h-6.468c.082 1.9635 1.006 3.069 2.59 3.069 1.238 0 2.112-.594 2.426-1.7985zm-4.026-4.8675c-1.403 0-2.244.8745-2.459 2.508h4.901c-.198-1.617-1.073-2.508-2.442-2.508zm6.06 7.722v-8.7615h1.452v1.353c.594-1.0725 1.534-1.5675 2.59-1.5675.347 0 .66.0825.825.2145v1.3035c-.247-.0825-.561-.1155-.907-.1155-1.749 0-2.508 1.089-2.508 2.673v4.9005zm9.92 0v-11.22h1.518v5.412l5.132-5.412h1.914l-5.28 5.511 5.412 5.709h-2.046l-5.132-5.379v5.379zm10.297-9.933v-1.947h1.452v1.947zm0 9.933v-8.7615h1.452v8.7615zm4.118-2.5245v-5.082h-1.221v-1.155h1.221v-2.013h1.452v2.013h1.93v1.155h-1.93v5.082c0 1.056.313 1.551 1.6 1.551h.297v1.0395c-.165.0825-.528.132-.94.132-1.634 0-2.409-.8745-2.409-2.7225z" fill="#fff" fill-opacity=".55"/></svg>