<svg fill="none" height="320" viewBox="0 0 700 320" width="700" xmlns="http://www.w3.org/2000/svg" xmlns:xlink="http://www.w3.org/1999/xlink"><filter id="a" color-interpolation-filters="sRGB" filterUnits="userSpaceOnUse" height="800" width="800" x="260" y="-460"><feFlood flood-opacity="0" result="BackgroundImageFix"/><feBlend in="SourceGraphic" in2="BackgroundImageFix" mode="normal" result="shape"/><feGaussianBlur result="effect1_foregroundBlur_2862_30" stdDeviation="120"/></filter><filter id="b" color-interpolation-filters="sRGB" filterUnits="userSpaceOnUse" height="800" width="800" x="-380" y="-187"><feFlood flood-opacity="0" result="BackgroundImageFix"/><feBlend in="SourceGraphic" in2="BackgroundImageFix" mode="normal" result="shape"/><feGaussianBlur result="effect1_foregroundBlur_2862_30" stdDeviation="120"/></filter><filter id="c" color-interpolation-filters="sRGB" filterUnits="userSpaceOnUse" height="800" width="800" x="260" y="80"><feFlood flood-opacity="0" result="BackgroundImageFix"/><feBlend in="SourceGraphic" in2="BackgroundImageFix" mode="normal" result="shape"/><feGaussianBlur result="effect1_foregroundBlur_2862_30" stdDeviation="120"/></filter><filter id="d" color-interpolation-filters="sRGB" filterUnits="userSpaceOnUse" height="800" width="800" x="-380" y="13"><feFlood flood-opacity="0" result="BackgroundImageFix"/><feBlend in="SourceGraphic" in2="BackgroundImageFix" mode="normal" result="shape"/><feGaussianBlur result="effect1_foregroundBlur_2862_30" stdDeviation="120"/></filter><linearGradient id="e" gradientUnits="userSpaceOnUse" x1=".00001" x2="710.784" y1="320" y2="26.0793"><stop offset="0" stop-color="#18e299" stop-opacity=".09"/><stop offset=".729167" stop-color="#0d9373" stop-opacity=".08"/></linearGradient><linearGradient id="f"><stop offset="0" stop-color="#00b0bb"/><stop offset="1" stop-color="#00db65"/></linearGradient><radialGradient id="g" cx="0" cy="0" gradientTransform="matrix(166.51315314 -29.44766955 29.16363642 164.90707525 208.697 189.703)" gradientUnits="userSpaceOnUse" r="1" xlink:href="#f"/><linearGradient id="h" gradientUnits="userSpaceOnUse" x1="306.587" x2="252.341" y1="93.5598" y2="224.228"><stop offset="0" stop-color="#18e299"/><stop offset="1"/></linearGradient><linearGradient id="i"><stop offset="0"/><stop offset="1" stop-opacity="0"/></linearGradient><linearGradient id="j" gradientUnits="userSpaceOnUse" x1="311.84" x2="253.579" xlink:href="#i" y1="123.717" y2="224.761"/><radialGradient id="k" cx="0" cy="0" gradientTransform="matrix(50.11021952 -197.37010241 217.01677865 55.0983066 313.407 243.64)" gradientUnits="userSpaceOnUse" r="1"><stop offset="0" stop-color="#0bb"/><stop offset=".712616" stop-color="#00db65"/></radialGradient><linearGradient id="l" gradientUnits="userSpaceOnUse" x1="308.586" x2="383.487" xlink:href="#i" y1="102.284" y2="201.169"/><radialGradient id="m" cx="0" cy="0" gradientTransform="matrix(163.86495306 -60.78591395 56.72368873 152.91412084 311.446 249.925)" gradientUnits="userSpaceOnUse" r="1" xlink:href="#f"/><linearGradient id="n" gradientUnits="userSpaceOnUse" x1="395.842" x2="332.121" y1="169.781" y2="263.82"><stop offset="0" stop-color="#00b1bc"/><stop offset="1"/></linearGradient><linearGradient id="o" gradientUnits="userSpaceOnUse" x1="395.842" x2="370.99" xlink:href="#i" y1="169.781" y2="271.799"/><linearGradient id="p"><stop offset=".348958" stop-color="#84ffd3"/><stop offset=".880208" stop-color="#18e299" stop-opacity="0"/></linearGradient><radialGradient id="q" cx="0" cy="0" gradientTransform="matrix(398.125 0 0 182 350 50)" gradientUnits="userSpaceOnUse" r="1" xlink:href="#p"/><radialGradient id="r" cx="0" cy="0" gradientTransform="matrix(398.125 0 0 182 350 82)" gradientUnits="userSpaceOnUse" r="1" xlink:href="#p"/><radialGradient id="s" cx="0" cy="0" gradientTransform="matrix(0 182 -182 0 239 160)" gradientUnits="userSpaceOnUse" r="1" xlink:href="#p"/><radialGradient id="t" cx="0" cy="0" gradientTransform="matrix(0 182 -182 0 271 160)" gradientUnits="userSpaceOnUse" r="1" xlink:href="#p"/><radialGradient id="u" cx="0" cy="0" gradientTransform="matrix(0 182 -182 0 461 160)" gradientUnits="userSpaceOnUse" r="1" xlink:href="#p"/><radialGradient id="v" cx="0" cy="0" gradientTransform="matrix(0 182 -182 0 429 160)" gradientUnits="userSpaceOnUse" r="1" xlink:href="#p"/><radialGradient id="w" cx="0" cy="0" gradientTransform="matrix(398.125 0 0 182 350 271)" gradientUnits="userSpaceOnUse" r="1" xlink:href="#p"/><radialGradient id="x" cx="0" cy="0" gradientTransform="matrix(398.125 0 0 182 350 239)" gradientUnits="userSpaceOnUse" r="1" xlink:href="#p"/><linearGradient id="y"><stop offset="0" stop-color="#fff" stop-opacity=".1"/><stop offset=".5" stop-color="#fff"/><stop offset="1" stop-color="#fff" stop-opacity=".1"/></linearGradient><linearGradient id="z" gradientUnits="userSpaceOnUse" x1="0" x2="700" xlink:href="#y" y1="160" y2="160"/><linearGradient id="A" gradientUnits="userSpaceOnUse" x1="511" x2="189" xlink:href="#y" y1="-1" y2="321"/><linearGradient id="B" gradientUnits="userSpaceOnUse" x1="511" x2="189" xlink:href="#y" y1="321" y2="-.999997"/><clipPath id="C"><rect height="320" rx="16" width="700"/></clipPath><g clip-path="url(#C)"><rect fill="url(#e)" height="320" rx="16" width="700"/><path d="m311.889 247.3c-28.792-.085-53.663-15.834-65.597-45.671-11.935-29.836-8.272-67.106 7.122-100.517 28.792.085 53.663 15.833 65.597 45.67 11.935 29.837 8.272 67.106-7.122 100.518z" fill="#fff"/><path d="m311.889 247.3c-28.792-.085-53.663-15.834-65.597-45.671-11.935-29.836-8.272-67.106 7.122-100.517 28.792.085 53.663 15.833 65.597 45.67 11.935 29.837 8.272 67.106-7.122 100.518z" fill="url(#g)"/><path d="m311.889 247.3c-28.792-.085-53.663-15.834-65.597-45.671-11.935-29.836-8.272-67.106 7.122-100.517 28.792.085 53.663 15.833 65.597 45.67 11.935 29.837 8.272 67.106-7.122 100.518z" fill="#000" fill-opacity=".5"/><path d="m311.889 247.3c-28.792-.085-53.663-15.834-65.597-45.671-11.935-29.836-8.272-67.106 7.122-100.517 28.792.085 53.663 15.833 65.597 45.67 11.935 29.837 8.272 67.106-7.122 100.518z" fill="url(#h)" fill-opacity=".5"/><path d="m311.72 247.034c-28.612-.147-53.311-15.826-65.182-45.503-11.882-29.706-8.267-66.829 7.045-100.154 28.612.147 53.311 15.826 65.182 45.503 11.882 29.706 8.266 66.829-7.045 100.154z" stroke="url(#j)" stroke-opacity=".05" stroke-width=".530516"/><path d="m305.839 247.174c38.081-9.755 71.315-36.555 87.746-75.534 16.432-38.979 12.395-81.4412-7.238-115.4466-38.081 9.7543-71.315 36.5552-87.746 75.5346-16.432 38.978-12.395 81.44 7.238 115.446z" fill="#fff"/><path d="m305.839 247.174c38.081-9.755 71.315-36.555 87.746-75.534 16.432-38.979 12.395-81.4412-7.238-115.4466-38.081 9.7543-71.315 36.5552-87.746 75.5346-16.432 38.978-12.395 81.44 7.238 115.446z" fill="url(#k)"/><path d="m393.341 171.537c-16.37 38.832-49.451 65.554-87.372 75.33-19.507-33.908-23.493-76.204-7.124-115.036 16.37-38.8332 49.45-65.5545 87.372-75.3306 19.507 33.9073 23.493 76.2036 7.124 115.0366z" stroke="url(#l)" stroke-opacity=".05" stroke-width=".530516"/><path d="m305.686 246.995c24.063 19.119 56.279 25.837 87.984 15.134 31.706-10.703 55.829-36.438 67.36-67.573-24.063-19.119-56.279-25.837-87.985-15.134-31.705 10.703-55.828 36.438-67.359 67.573z" fill="#fff"/><path d="m305.686 246.995c24.063 19.119 56.279 25.837 87.984 15.134 31.706-10.703 55.829-36.438 67.36-67.573-24.063-19.119-56.279-25.837-87.985-15.134-31.705 10.703-55.828 36.438-67.359 67.573z" fill="url(#m)"/><path d="m305.686 246.995c24.063 19.119 56.279 25.837 87.984 15.134 31.706-10.703 55.829-36.438 67.36-67.573-24.063-19.119-56.279-25.837-87.985-15.134-31.705 10.703-55.828 36.438-67.359 67.573z" fill="#000" fill-opacity=".2"/><path d="m305.686 246.995c24.063 19.119 56.279 25.837 87.984 15.134 31.706-10.703 55.829-36.438 67.36-67.573-24.063-19.119-56.279-25.837-87.985-15.134-31.705 10.703-55.828 36.438-67.359 67.573z" fill="url(#n)" fill-opacity=".5"/><path d="m393.586 261.878c-31.552 10.651-63.606 4.002-87.584-14.971 11.532-30.988 35.568-56.58 67.128-67.234 31.551-10.65 63.605-4.002 87.584 14.971-11.533 30.988-35.569 56.58-67.128 67.234z" stroke="url(#o)" stroke-opacity=".05" stroke-width=".530516"/><g filter="url(#a)" opacity=".8"><circle cx="660" cy="-60" fill="#18e244" fill-opacity=".4" r="160"/></g><g filter="url(#b)" opacity=".8"><circle cx="20" cy="213" fill="#18cae2" fill-opacity=".33" r="160"/></g><g filter="url(#c)" opacity=".8"><circle cx="660" cy="480" fill="#18e2b2" fill-opacity=".52" r="160"/></g><g filter="url(#d)" opacity=".8"><circle cx="20" cy="413" fill="#4018e2" fill-opacity=".22" r="160"/></g><g stroke-dasharray="4 4"><path d="m0 50h700" opacity=".2" stroke="url(#q)"/><path d="m0 82h700" opacity=".1" stroke="url(#r)"/><path d="m239 0v320" opacity=".2" stroke="url(#s)"/><path d="m271 0v320" opacity=".1" stroke="url(#t)"/><path d="m461 0v320" opacity=".2" stroke="url(#u)"/><path d="m429 0v320" opacity=".1" stroke="url(#v)"/><path d="m0 271h700" opacity=".2" stroke="url(#w)"/><path d="m0 239h700" opacity=".1" stroke="url(#x)"/></g><path d="m0 160h700" opacity=".1" stroke="url(#z)"/><path d="m511-1-322 322" opacity=".2" stroke="url(#A)"/><path d="m511 321-322-322" opacity=".2" stroke="url(#B)"/><circle cx="350" cy="160" opacity=".1" r="111" stroke="#fff"/><circle cx="350" cy="160" opacity=".1" r="79" stroke="#fff"/></g></svg>